{"accessors":[{"bufferView":0,"byteOffset":0,"componentType":5126,"count":360,"max":[0.0269648991525173,0.0269648991525173,0.0269648991525173],"min":[-0.0269648991525173,-0.0269648991525173,-0.0269648991525173],"normalized":false,"type":"VEC3"},{"bufferView":1,"byteOffset":0,"componentType":5126,"count":360,"max":[1.0,0.109320349991322,1.0,1.0],"min":[-1.0,-0.151949554681778,-1.0,1.0],"normalized":false,"type":"VEC4"},{"bufferView":2,"byteOffset":0,"componentType":5126,"count":360,"max":[1.0,1.0,1.0],"min":[-1.0,-1.0,-1.0],"normalized":false,"type":"VEC3"},{"bufferView":3,"byteOffset":0,"componentType":5126,"count":360,"max":[1.0,1.0],"min":[0.0,0.0],"normalized":false,"type":"VEC2"},{"bufferView":4,"byteOffset":0,"componentType":5123,"count":360,"max":[359.0],"min":[0.0],"normalized":false,"type":"SCALAR"},{"bufferView":5,"byteOffset":0,"componentType":5126,"count":36,"max":[0.024414049461484,0.0932615026831627,0.0175781492143869],"min":[-0.024414049461484,-0.0932615026831627,-0.0175781492143869],"normalized":false,"type":"VEC3"},{"bufferView":6,"byteOffset":0,"componentType":5126,"count":36,"max":[0.0,0.0,0.0000763009302318096,-1.0],"min":[-1.0,-1.0,-1.0,-1.0],"normalized":false,"type":"VEC4"},{"bufferView":7,"byteOffset":0,"componentType":5126,"count":36,"max":[1.0,1.0,1.0],"min":[-1.0,-1.0,-1.0],"normalized":false,"type":"VEC3"},{"bufferView":8,"byteOffset":0,"componentType":5126,"count":36,"max":[1.0,1.0],"min":[0.0,0.0],"normalized":false,"type":"VEC2"},{"bufferView":9,"byteOffset":0,"componentType":5123,"count":36,"max":[35.0],"min":[0.0],"normalized":false,"type":"SCALAR"},{"bufferView":10,"byteOffset":0,"componentType":5126,"count":36,"max":[0.024414049461484,0.0932615026831627,0.0175781492143869],"min":[-0.024414049461484,-0.0932615026831627,-0.0175781492143869],"normalized":false,"type":"VEC3"},{"bufferView":11,"byteOffset":0,"componentType":5126,"count":36,"max":[0.0,0.0,0.0000763009302318096,-1.0],"min":[-1.0,-1.0,-1.0,-1.0],"normalized":false,"type":"VEC4"},{"bufferView":12,"byteOffset":0,"componentType":5126,"count":36,"max":[1.0,1.0,1.0],"min":[-1.0,-1.0,-1.0],"normalized":false,"type":"VEC3"},{"bufferView":13,"byteOffset":0,"componentType":5126,"count":36,"max":[1.0,1.0],"min":[0.0,0.0],"normalized":false,"type":"VEC2"},{"bufferView":14,"byteOffset":0,"componentType":5123,"count":36,"max":[35.0],"min":[0.0],"normalized":false,"type":"SCALAR"},{"bufferView":15,"byteOffset":0,"componentType":5126,"count":142,"max":[1.00000011920929,2.67414116859436,1.65137887001038],"min":[-1.00000011920929,-1.64161682128906,-1.0],"normalized":false,"type":"VEC3"},{"bufferView":16,"byteOffset":0,"componentType":5126,"count":142,"max":[1.0,1.0,-0.0000152590218931437,1.0],"min":[-1.0,0.0,-0.576031088829041,-1.0],"normalized":false,"type":"VEC4"},{"bufferView":17,"byteOffset":0,"componentType":5126,"count":142,"max":[1.0,1.0,1.0],"min":[-1.0,-1.0,-1.0],"normalized":false,"type":"VEC3"},{"bufferView":18,"byteOffset":0,"componentType":5126,"count":142,"max":[0.875,1.0],"min":[0.125,0.0],"normalized":false,"type":"VEC2"},{"bufferView":19,"byteOffset":0,"componentType":5123,"count":384,"max":[141.0],"min":[0.0],"normalized":false,"type":"SCALAR"},{"bufferView":20,"byteOffset":0,"componentType":5126,"count":1202,"max":[2.82892656326294,3.13875317573547,0.96893972158432],"min":[-2.82892656326294,0.921602010726929,-0.918545067310333],"normalized":false,"type":"VEC3"},{"bufferView":21,"byteOffset":0,"componentType":5126,"count":1202,"max":[0.999997794628143,1.00000011920929,0.411562502384186,1.0],"min":[-0.999997854232788,-0.912830710411072,-0.574316084384918,-1.0],"normalized":false,"type":"VEC4"},{"bufferView":22,"byteOffset":0,"componentType":5126,"count":1202,"max":[1.0,0.999226331710815,0.999999403953552],"min":[-1.0,-0.999410152435303,-0.994422137737274],"normalized":false,"type":"VEC3"},{"bufferView":23,"byteOffset":0,"componentType":5126,"count":1202,"max":[0.87500011920929,1.0],"min":[0.124984726309776,-0.0000152587890625],"normalized":false,"type":"VEC2"},{"bufferView":24,"byteOffset":0,"componentType":5123,"count":5760,"max":[1201.0],"min":[0.0],"normalized":false,"type":"SCALAR"},{"bufferView":25,"byteOffset":0,"componentType":5126,"count":68,"max":[1.0,6.01983261108398,0.585383236408234],"min":[-1.0,-3.35754442214966,-1.0],"normalized":false,"type":"VEC3"},{"bufferView":26,"byteOffset":0,"componentType":5126,"count":68,"max":[1.0,1.0,0.012591952458024,1.0],"min":[-1.0,-0.0000152592547237873,-0.0000457784626632929,-1.0],"normalized":false,"type":"VEC4"},{"bufferView":27,"byteOffset":0,"componentType":5126,"count":68,"max":[1.0,1.0,1.0],"min":[-1.0,-1.0,-1.0],"normalized":false,"type":"VEC3"},{"bufferView":28,"byteOffset":0,"componentType":5126,"count":68,"max":[0.875,1.0],"min":[0.125,0.0],"normalized":false,"type":"VEC2"},{"bufferView":29,"byteOffset":0,"componentType":5123,"count":132,"max":[67.0],"min":[0.0],"normalized":false,"type":"SCALAR"},{"bufferView":30,"byteOffset":0,"componentType":5126,"count":174,"max":[1.04994201660156,1.01222383975983,1.0],"min":[-1.04994201660156,-0.245300710201263,-1.79959464073181],"normalized":false,"type":"VEC3"},{"bufferView":31,"byteOffset":0,"componentType":5126,"count":174,"max":[1.0,1.0,0.70710676908493,1.0],"min":[-1.0,0.0,-0.656994462013245,-1.0],"normalized":false,"type":"VEC4"},{"bufferView":32,"byteOffset":0,"componentType":5126,"count":174,"max":[1.0,1.0,1.0],"min":[-1.0,-1.0,-1.0],"normalized":false,"type":"VEC3"},{"bufferView":33,"byteOffset":0,"componentType":5126,"count":174,"max":[0.625,1.0],"min":[0.0,0.0],"normalized":false,"type":"VEC2"},{"bufferView":34,"byteOffset":0,"componentType":5123,"count":372,"max":[173.0],"min":[0.0],"normalized":false,"type":"SCALAR"},{"bufferView":35,"byteOffset":0,"componentType":5126,"count":6,"max":[0.0,0.0,0.0],"min":[0.0,0.0,-3.92000007629395],"normalized":false,"type":"VEC3"},{"bufferView":36,"byteOffset":0,"componentType":5126,"count":6,"max":[-0.0000152592547237873,-1.0,0.0000152592547237873,1.0],"min":[-0.0000152592547237873,-1.0,0.0000152592547237873,1.0],"normalized":false,"type":"VEC4"},{"bufferView":37,"byteOffset":0,"componentType":5126,"count":6,"max":[0.0,0.0,-1.0],"min":[0.0,0.0,-1.0],"normalized":false,"type":"VEC3"},{"bufferView":38,"byteOffset":0,"componentType":5126,"count":6,"max":[1.0,0.246999993920326],"min":[0.0,-0.246999993920326],"normalized":false,"type":"VEC2"},{"bufferView":39,"byteOffset":0,"componentType":5126,"count":6,"max":[0.388235300779343,0.388235300779343,0.388235300779343,1.0],"min":[0.388235300779343,0.388235300779343,0.388235300779343,1.0],"normalized":false,"type":"VEC4"},{"bufferView":40,"byteOffset":0,"componentType":5123,"count":12,"max":[5.0],"min":[0.0],"normalized":false,"type":"SCALAR"},{"bufferView":41,"byteOffset":0,"componentType":5126,"count":4,"max":[0.5,0.5,0.0],"min":[-0.5,-0.5,0.0],"normalized":false,"type":"VEC3"},{"bufferView":42,"byteOffset":0,"componentType":5126,"count":4,"max":[1.0,0.0,-0.0000152590218931437,1.0],"min":[1.0,0.0,-0.0000152590218931437,1.0],"normalized":false,"type":"VEC4"},{"bufferView":43,"byteOffset":0,"componentType":5126,"count":4,"max":[-0.0000152592547237873,-0.0000152592547237873,1.0],"min":[-0.0000152592547237873,-0.0000152592547237873,1.0],"normalized":false,"type":"VEC3"},{"bufferView":44,"byteOffset":0,"componentType":5126,"count":4,"max":[1.0,1.0],"min":[0.0,0.0],"normalized":false,"type":"VEC2"},{"bufferView":45,"byteOffset":0,"componentType":5123,"count":6,"max":[3.0],"min":[0.0],"normalized":false,"type":"SCALAR"}],"asset":{"generator":"Godot Engine v4.4.stable.mono.official@4c311cbee68c0b66ff8ebb8b0defdd9979dd2a41","version":"2.0"},"bufferViews":[{"buffer":0,"byteLength":4320,"byteOffset":0,"byteStride":12,"target":34962},{"buffer":0,"byteLength":5760,"byteOffset":4320,"byteStride":16,"target":34962},{"buffer":0,"byteLength":4320,"byteOffset":10080,"byteStride":12,"target":34962},{"buffer":0,"byteLength":2880,"byteOffset":14400,"byteStride":8,"target":34962},{"buffer":0,"byteLength":720,"byteOffset":17280,"target":34963},{"buffer":0,"byteLength":432,"byteOffset":18000,"byteStride":12,"target":34962},{"buffer":0,"byteLength":576,"byteOffset":18432,"byteStride":16,"target":34962},{"buffer":0,"byteLength":432,"byteOffset":19008,"byteStride":12,"target":34962},{"buffer":0,"byteLength":288,"byteOffset":19440,"byteStride":8,"target":34962},{"buffer":0,"byteLength":72,"byteOffset":19728,"target":34963},{"buffer":0,"byteLength":432,"byteOffset":19800,"byteStride":12,"target":34962},{"buffer":0,"byteLength":576,"byteOffset":20232,"byteStride":16,"target":34962},{"buffer":0,"byteLength":432,"byteOffset":20808,"byteStride":12,"target":34962},{"buffer":0,"byteLength":288,"byteOffset":21240,"byteStride":8,"target":34962},{"buffer":0,"byteLength":72,"byteOffset":21528,"target":34963},{"buffer":0,"byteLength":1704,"byteOffset":21600,"byteStride":12,"target":34962},{"buffer":0,"byteLength":2272,"byteOffset":23304,"byteStride":16,"target":34962},{"buffer":0,"byteLength":1704,"byteOffset":25576,"byteStride":12,"target":34962},{"buffer":0,"byteLength":1136,"byteOffset":27280,"byteStride":8,"target":34962},{"buffer":0,"byteLength":768,"byteOffset":28416,"target":34963},{"buffer":0,"byteLength":14424,"byteOffset":29184,"byteStride":12,"target":34962},{"buffer":0,"byteLength":19232,"byteOffset":43608,"byteStride":16,"target":34962},{"buffer":0,"byteLength":14424,"byteOffset":62840,"byteStride":12,"target":34962},{"buffer":0,"byteLength":9616,"byteOffset":77264,"byteStride":8,"target":34962},{"buffer":0,"byteLength":11520,"byteOffset":86880,"target":34963},{"buffer":0,"byteLength":816,"byteOffset":98400,"byteStride":12,"target":34962},{"buffer":0,"byteLength":1088,"byteOffset":99216,"byteStride":16,"target":34962},{"buffer":0,"byteLength":816,"byteOffset":100304,"byteStride":12,"target":34962},{"buffer":0,"byteLength":544,"byteOffset":101120,"byteStride":8,"target":34962},{"buffer":0,"byteLength":264,"byteOffset":101664,"target":34963},{"buffer":0,"byteLength":2088,"byteOffset":101928,"byteStride":12,"target":34962},{"buffer":0,"byteLength":2784,"byteOffset":104016,"byteStride":16,"target":34962},{"buffer":0,"byteLength":2088,"byteOffset":106800,"byteStride":12,"target":34962},{"buffer":0,"byteLength":1392,"byteOffset":108888,"byteStride":8,"target":34962},{"buffer":0,"byteLength":744,"byteOffset":110280,"target":34963},{"buffer":0,"byteLength":72,"byteOffset":111024,"byteStride":12,"target":34962},{"buffer":0,"byteLength":96,"byteOffset":111096,"byteStride":16,"target":34962},{"buffer":0,"byteLength":72,"byteOffset":111192,"byteStride":12,"target":34962},{"buffer":0,"byteLength":48,"byteOffset":111264,"byteStride":8,"target":34962},{"buffer":0,"byteLength":96,"byteOffset":111312,"byteStride":16,"target":34962},{"buffer":0,"byteLength":24,"byteOffset":111408,"target":34963},{"buffer":0,"byteLength":48,"byteOffset":111432,"byteStride":12,"target":34962},{"buffer":0,"byteLength":64,"byteOffset":111480,"byteStride":16,"target":34962},{"buffer":0,"byteLength":48,"byteOffset":111544,"byteStride":12,"target":34962},{"buffer":0,"byteLength":32,"byteOffset":111592,"byteStride":8,"target":34962},{"buffer":0,"byteLength":12,"byteOffset":111624,"target":34963}],"buffers":[{"byteLength":111636,"uri":"ship0.bin"}],"cameras":[{"perspective":{"yfov":1.30899691581726,"zfar":4000.0,"znear":0.0500000007450581},"type":"perspective"}],"extensions":{"KHR_lights_punctual":{"lights":[{"intensity":30.0,"range":300.0,"spot":{"innerConeAngle":0.42554298043251,"outerConeAngle":0.520108103752136},"type":"spot"},{"color":[0.0745097994804382,0.588235020637512,1.0],"intensity":0.150000005960464,"range":5.0,"type":"point"}]},"OMI_physics_shape":{"shapes":[{"sphere":{"radius":2.67682003974915},"type":"sphere"},{"box":{"size":[0.0576171986758709,0.225830003619194,0.0373535007238388]},"type":"box"},{"box":{"size":[1.0,1.0,0.078125]},"type":"box"},{"capsule":{"height":5.62834978103638,"radius":1.16550004482269},"type":"capsule"}]}},"extensionsUsed":["GODOT_single_root","KHR_lights_punctual","KHR_materials_unlit","OMI_physics_body","OMI_physics_shape"],"images":[{"uri":"textures%2F_albedo000.png"}],"materials":[{},{},{},{"extensions":{},"pbrMetallicRoughness":{"baseColorFactor":[1.0,1.0,1.0,1.0],"metallicFactor":0.0,"roughnessFactor":1.0}},{"extensions":{},"pbrMetallicRoughness":{"baseColorFactor":[1.0,1.0,1.0,1.0],"metallicFactor":0.0,"roughnessFactor":1.0}},{"extensions":{},"pbrMetallicRoughness":{"baseColorFactor":[1.0,1.0,1.0,1.0],"metallicFactor":0.0,"roughnessFactor":1.0}},{"extensions":{},"pbrMetallicRoughness":{"baseColorFactor":[1.0,1.0,1.0,1.0],"metallicFactor":0.0,"roughnessFactor":1.0}},{},{"alphaMode":"BLEND","extensions":{"KHR_materials_unlit":{}},"pbrMetallicRoughness":{"baseColorFactor":[1.0,1.0,1.0,1.0],"baseColorTexture":{"index":0},"metallicFactor":0.0,"roughnessFactor":1.0}}],"meshes":[{"extras":{"targetNames":[]},"primitives":[{"attributes":{"NORMAL":2,"POSITION":0,"TANGENT":1,"TEXCOORD_0":3},"indices":4,"material":0,"mode":4}]},{"extras":{"targetNames":[]},"primitives":[{"attributes":{"NORMAL":7,"POSITION":5,"TANGENT":6,"TEXCOORD_0":8},"indices":9,"material":1,"mode":4}]},{"extras":{"targetNames":[]},"primitives":[{"attributes":{"NORMAL":12,"POSITION":10,"TANGENT":11,"TEXCOORD_0":13},"indices":14,"material":2,"mode":4}]},{"extras":{"targetNames":[]},"primitives":[{"attributes":{"NORMAL":17,"POSITION":15,"TANGENT":16,"TEXCOORD_0":18},"indices":19,"material":3,"mode":4}]},{"extras":{"targetNames":[]},"primitives":[{"attributes":{"NORMAL":22,"POSITION":20,"TANGENT":21,"TEXCOORD_0":23},"indices":24,"material":4,"mode":4}]},{"extras":{"targetNames":[]},"primitives":[{"attributes":{"NORMAL":27,"POSITION":25,"TANGENT":26,"TEXCOORD_0":28},"indices":29,"material":5,"mode":4}]},{"extras":{"targetNames":[]},"primitives":[{"attributes":{"NORMAL":32,"POSITION":30,"TANGENT":31,"TEXCOORD_0":33},"indices":34,"material":6,"mode":4}]},{"extras":{"targetNames":[]},"primitives":[{"attributes":{"COLOR_0":39,"NORMAL":37,"POSITION":35,"TANGENT":36,"TEXCOORD_0":38},"indices":40,"material":7,"mode":4}]},{"extras":{"targetNames":[]},"primitives":[{"attributes":{"NORMAL":43,"POSITION":41,"TANGENT":42,"TEXCOORD_0":44},"indices":45,"material":8,"mode":4}]}],"nodes":[{"children":[1,15,18,21,26,29,38,41,42,43],"extensions":{"OMI_physics_body":{"motion":{"type":"kinematic"}}},"name":"Ship"},{"children":[2,7,13],"name":"XROrigin3D"},{"children":[3,5],"name":"LeftController"},{"children":[4],"name":"RayCast3D","translation":[0.0,-0.00678109005093575,-0.00419024005532265]},{"name":"Line3D"},{"children":[6],"extensions":{"OMI_physics_body":{"trigger":{"nodes":[6.0]}}},"name":"LeftInteractor"},{"extensions":{"OMI_physics_body":{"trigger":null}},"name":"CollisionShape3D"},{"children":[8,10,12],"name":"RightController"},{"children":[9],"name":"RayCast3D2","translation":[0.0,-0.00678109005093575,-0.00419024005532265]},{"name":"Line3D2"},{"children":[11],"extensions":{"OMI_physics_body":{"trigger":{"nodes":[11.0]}}},"name":"RightInteractor"},{"extensions":{"OMI_physics_body":{"trigger":null}},"name":"CollisionShape3D2"},{"mesh":0,"name":"CSGSphere3D2"},{"camera":0,"children":[14],"name":"XRCamera3D"},{"name":"UX"},{"children":[16,17],"extensions":{"OMI_physics_body":{"motion":{"type":"dynamic"}}},"name":"Throttle","rotation":[0.382683455944061,0.0,0.0,0.923879563808441],"translation":[-0.310938000679016,0.65718001127243,-0.298029005527496]},{"extensions":{"OMI_physics_body":{"collider":{"shape":1}}},"name":"CollisionShape3D3","translation":[0.0,0.0655518025159836,0.0]},{"mesh":1,"name":"CSGBox3D2","translation":[0.0,0.0819503962993622,0.0]},{"children":[19,20],"extensions":{"OMI_physics_body":{"motion":{"type":"dynamic"}}},"name":"Joy","translation":[0.208936005830765,0.65718001127243,-0.298029005527496]},{"extensions":{"OMI_physics_body":{"collider":{"shape":1}}},"name":"CollisionShape3D4","translation":[0.0,0.0655518025159836,0.0]},{"mesh":2,"name":"CSGBox3D4","translation":[0.0,0.0819503962993622,0.0]},{"children":[22,23,24,25],"name":"ship"},{"mesh":3,"name":"Console","scale":[0.805684685707092,0.231643423438072,0.231643423438072],"translation":[0.0,0.0,-1.08060312271118]},{"mesh":4,"name":"Cube","scale":[1.0,0.0919173136353493,1.0]},{"mesh":5,"name":"Cube_001","scale":[0.363266348838806,0.164398923516274,0.657702744007111],"translation":[0.0,0.151341184973717,0.216507911682129]},{"mesh":6,"name":"Cube_002","scale":[0.838137030601501,1.51173198223114,1.51173198223114],"translation":[0.0,0.0,0.216507911682129]},{"children":[27],"name":"Blasters","translation":[0.0,-0.412577986717224,-2.59454011917114]},{"children":[28],"mesh":7,"name":"RayLine"},{"name":"SignalAnimPlayer"},{"children":[30,35,37],"name":"2DViewportIn3D","rotation":[-0.312326788902283,0.0,0.0,0.949974715709686],"translation":[0.00162836001254618,0.49371600151062,-0.786890983581543]},{"children":[31],"name":"SubViewport"},{"children":[32,33,34],"name":"Control"},{"name":"Panel"},{"name":"ProgressBar"},{"name":"VideoStreamPlayer"},{"children":[36],"extensions":{"OMI_physics_body":{"motion":{"type":"static"}}},"name":"CollisionObject"},{"extensions":{"OMI_physics_body":{"collider":{"shape":2}}},"name":"CollisionShape3D5","scale":[0.400000005960464,0.287999987602234,0.400000005960464],"translation":[0.0,0.0,0.000320383987855166]},{"mesh":8,"name":"Screen","scale":[0.400000005960464,0.287999987602234,0.400000005960464]},{"children":[39],"name":"TargetingShape","translation":[0.0,0.0,-2.63567996025085]},{"children":[40],"name":"TargetingSprite","scale":[0.44794699549675,0.44794699549675,0.44794699549675],"translation":[0.0,0.0,-8.23104953765869]},{"name":"Billboard3D"},{"extensions":{"KHR_lights_punctual":{"light":0}},"name":"SpotLight3D","translation":[0.0,0.0,-2.55258011817932]},{"extensions":{"KHR_lights_punctual":{"light":1}},"name":"OmniLight3D","translation":[0.0,1.29510998725891,0.0]},{"extensions":{"OMI_physics_body":{"collider":{"shape":3}}},"name":"CollisionShape3D6","rotation":[-0.70710676908493,0.0,0.0,0.70710676908493],"translation":[0.0,0.585011005401611,-0.0000000255715999486483]}],"samplers":[{"magFilter":9729,"minFilter":9987,"wrapS":10497,"wrapT":10497}],"scene":0,"scenes":[{"nodes":[0]}],"textures":[{"sampler":0,"source":0}]}